
        <svg xmlns="http://www.w3.org/2000/svg" xmlns:xlink="http://www.w3.org/1999/xlink" version="1.1" width="3162.1621621621625" 
        height="731.1856296171635" viewBox="0 0 3162.1621621621625 731.1856296171635">
			<rect fill="#0d2352" width="3162.1621621621625" height="731.1856296171635"/>
			<g transform="scale(8.108108108108109) translate(10, 10)">
				<defs id="SvgjsDefs2017"></defs><g id="SvgjsG2018" featureKey="symbolFeature-0" transform="matrix(1.4035912197223366,0,0,1.4035912197223366,-14.125692690281777,-14.035912197223366)" fill="#0dceda"><g xmlns="http://www.w3.org/2000/svg"><g><g><path d="M27.9741211,45.8085938c-9.8759766,0-17.9101563-8.0341797-17.9101563-17.909668     C10.0639648,18.0292969,18.0981445,10,27.9741211,10c9.8691406,0,17.8984375,8.0292969,17.8984375,17.8989258     C45.8725586,37.7744141,37.8432617,45.8085938,27.9741211,45.8085938z M27.9741211,12     c-8.7724609,0-15.9101563,7.1323242-15.9101563,15.8989258c0,8.7724609,7.1376953,15.909668,15.9101563,15.909668     c8.7666016,0,15.8984375-7.137207,15.8984375-15.909668C43.8725586,19.1323242,36.7407227,12,27.9741211,12z"></path></g></g><g><g><path d="M27.9741211,45.8085938c-4.3105469,0-7.5615234-7.699707-7.5615234-17.909668     C20.4125977,17.6948242,23.6616211,10,27.9702148,10c4.3066406,0,7.5537109,7.6948242,7.5537109,17.8989258     C35.5239258,38.1088867,32.277832,45.8085938,27.9741211,45.8085938z M27.9702148,12     c-2.6289063,0-5.5576172,6.5292969-5.5576172,15.8989258c0,9.3759766,2.9306641,15.909668,5.5615234,15.909668     c2.625,0,5.5498047-6.5336914,5.5498047-15.909668C33.5239258,18.5292969,30.597168,12,27.9702148,12z"></path></g></g><g><g><path d="M42.6577148,20.5375977H13.2788086c-0.5527344,0-1-0.4477539-1-1s0.4472656-1,1-1h29.3789063     c0.5527344,0,1,0.4477539,1,1S43.2104492,20.5375977,42.6577148,20.5375977z"></path></g></g><g><g><path d="M44.8725586,28.8989258H11.0639648c-0.5527344,0-1-0.4477539-1-1s0.4472656-1,1-1h33.8085938     c0.5527344,0,1,0.4477539,1,1S45.425293,28.8989258,44.8725586,28.8989258z"></path></g></g><g><g><path d="M42.6479492,37.2709961H13.2895508c-0.5527344,0-1-0.4477539-1-1s0.4472656-1,1-1h29.3583984     c0.5527344,0,1,0.4477539,1,1S43.2006836,37.2709961,42.6479492,37.2709961z"></path></g></g><g><g><path d="M33.4487305,51.8061523c-1.0117188,0-2.0019531-0.2299805-2.9160156-0.6962891     c-2.2285156-1.1376953-3.5585938-3.4931641-3.5585938-6.3012695c0-0.5522461,0.4472656-1,1-1s1,0.4477539,1,1     c0,2.0717773,0.8994141,3.7192383,2.4677734,4.5195313c1.6162109,0.8256836,3.6220703,0.5620117,5.3652344-0.7006836     c3.8378906-2.7797852,7.8212891-5.9345703,10.6357422-11.2060547c0.5917969-1.1083984,1.6865234-1.8500977,2.9296875-1.984375     c1.1367188-0.1220703,2.2236328,0.2973633,2.9550781,1.1572266c0.5751953,0.6743164,0.8789063,1.5078125,0.8789063,2.409668     V42.125c0,0.5522461-0.4472656,1-1,1s-1-0.4477539-1-1v-3.1210938c0-0.4199219-0.1386719-0.8046875-0.4003906-1.112793     c-0.4052734-0.4750977-0.9335938-0.4960938-1.2197266-0.4658203c-0.5751953,0.0625-1.1035156,0.421875-1.3798828,0.9384766     c-3.0146484,5.6469727-7.1992188,8.9667969-11.2255859,11.8837891     C36.5561523,51.2788086,34.9790039,51.8061523,33.4487305,51.8061523z"></path></g></g><g><g><path d="M27.9741211,45.8085938c-0.5527344,0-1-0.4477539-1-1V11c0-0.5522461,0.4472656-1,1-1s1,0.4477539,1,1v33.8085938     C28.9741211,45.3608398,28.5268555,45.8085938,27.9741211,45.8085938z"></path></g></g><g><g><path d="M53.206543,60c-3.7109375,0-6.7304688-3.019043-6.7304688-6.7304688v-5.4140625c0-0.5522461,0.4472656-1,1-1h11.4599609     c0.5527344,0,1,0.4477539,1,1v5.4140625C59.9360352,56.980957,56.9174805,60,53.206543,60z M48.4760742,48.8554688v4.4140625     C48.4760742,55.8779297,50.5981445,58,53.206543,58c2.6074219,0,4.7294922-2.1220703,4.7294922-4.7304688v-4.4140625H48.4760742z     "></path></g></g><g><g><path d="M53.206543,48.8554688h-5.7304688c-0.5527344,0-1-0.4477539-1-1c0-3.7114258,3.0195313-6.7304688,6.7304688-6.7304688     c0.5527344,0,1,0.4477539,1,1v5.7304688C54.206543,48.4077148,53.7592773,48.8554688,53.206543,48.8554688z      M48.5825195,46.8554688h3.6240234v-3.6240234C50.3989258,43.621582,48.9731445,45.0478516,48.5825195,46.8554688z"></path></g></g><g><g><path d="M58.9360352,48.8554688H53.206543c-0.5527344,0-1-0.4477539-1-1V42.125c0-0.5522461,0.4472656-1,1-1     c3.7109375,0,6.7294922,3.019043,6.7294922,6.7304688C59.9360352,48.4077148,59.4887695,48.8554688,58.9360352,48.8554688z      M54.206543,46.8554688h3.6230469c-0.390625-1.8071289-1.8164063-3.2333984-3.6230469-3.6240234V46.8554688z"></path></g></g></g></g><g id="SvgjsG2019" featureKey="nameFeature-0" transform="matrix(1.1273497921999285,0,0,1.1273497921999285,87.93258227283049,3.0738911595519216)" fill="#0dceda"><path d="M8.76 13.84 c0.04 -0.12 0.12 -0.24 0.28 -0.24 l4.96 0 c0.16 0 0.24 0.12 0.28 0.24 l6.92 25.72 c0.04 0.24 -0.12 0.44 -0.36 0.44 l-4.56 0 c-0.12 0 -0.24 -0.08 -0.28 -0.24 l-1.56 -5.6 l-5.84 0 l-1.52 5.6 c-0.04 0.16 -0.12 0.24 -0.28 0.24 l-4.6 0 c-0.24 0 -0.4 -0.2 -0.36 -0.44 z M9.88 29.2 l3.32 0 l-1.72 -6.04 z M16.04 31.560000000000002 l1.84 6 c0.08 0.24 0.52 0.2 0.4 -0.12 l-6.4 -21.28 c-0.12 -0.52 -0.8 -0.56 -0.92 0 l-6.2 21.28 c-0.12 0.28 0.32 0.4 0.44 0.16 l1.76 -6.04 l9.08 0 z M7.08 31.04 l4.36 -14.72 l4.44 14.72 l-8.8 0 z M38.396 13.600000000000001 c4.44 0 7.12 2.52 7.12 7.2 l0 5.04 c0 4.28 -2.64 7.16 -7.12 7.16 l-3.36 0 l0 6.64 c0 0.2 -0.16 0.36 -0.36 0.36 l-4.6 0 c-0.16 0 -0.28 -0.16 -0.28 -0.36 l0 -25.68 c0 -0.2 0.12 -0.36 0.28 -0.36 l8.32 0 z M40.276 24.64 l0 -2.64 c0 -2.76 -1.28 -3.04 -4.08 -3.04 l-1.16 0 l0 8.8 l1.16 0 c2.2 0 4.08 -0.4 4.08 -3.12 z M43.116 25.560000000000002 l0 -5 c0 -4.4 -3.4 -4.76 -5.24 -4.76 l-5.4 0 c-0.08 0 -0.24 0.12 -0.24 0.24 l0 21.52 c0 0.28 0.48 0.28 0.48 0 l0 -6.8 l4.8 0 c3.52 0 5.6 -1.24 5.6 -5.2 z M32.716 16.32 l5.16 0 c4.44 0 4.72 2.92 4.72 4.24 l0 5 c0 4.08 -2.56 4.64 -5.08 4.64 l-4.8 0 l0 -13.88 z M62.752 13.600000000000001 c4.44 0 7.12 2.52 7.12 7.2 l0 5.04 c0 4.28 -2.64 7.16 -7.12 7.16 l-3.36 0 l0 6.64 c0 0.2 -0.16 0.36 -0.36 0.36 l-4.6 0 c-0.16 0 -0.28 -0.16 -0.28 -0.36 l0 -25.68 c0 -0.2 0.12 -0.36 0.28 -0.36 l8.32 0 z M64.632 24.64 l0 -2.64 c0 -2.76 -1.28 -3.04 -4.08 -3.04 l-1.16 0 l0 8.8 l1.16 0 c2.2 0 4.08 -0.4 4.08 -3.12 z M67.47200000000001 25.560000000000002 l0 -5 c0 -4.4 -3.4 -4.76 -5.24 -4.76 l-5.4 0 c-0.08 0 -0.24 0.12 -0.24 0.24 l0 21.52 c0 0.28 0.48 0.28 0.48 0 l0 -6.8 l4.8 0 c3.52 0 5.6 -1.24 5.6 -5.2 z M57.072 16.32 l5.16 0 c4.44 0 4.72 2.92 4.72 4.24 l0 5 c0 4.08 -2.56 4.64 -5.08 4.64 l-4.8 0 l0 -13.88 z M87.50800000000001 23.8 c3.04 1.44 7 3.72 7 7.84 c0 1.2 -0.2 3.52 -1.52 5.48 c-1.48 2.2 -3.8 3.28 -7 3.28 c-3.4 0 -7.36 -1.64 -8.6 -5.36 c-0.04 -0.12 0 -0.24 0.12 -0.32 l3.68 -3.16 c0.16 -0.12 0.4 -0.12 0.52 0.08 c0.08 0.2 0.24 0.52 0.44 0.92 c0.6 1.24 2.04 2.48 3.64 2.48 c1.24 0 2.92 -0.68 2.92 -2.6 c0 -1.84 -2.52 -2.88 -4.08 -3.48 c-1.8 -0.72 -3.64 -1.64 -5.2 -3 c-1.64 -1.52 -2.44 -3.2 -2.44 -5.2 c0 -5 4.6 -7.52 8.96 -7.52 c3.44 0 6 1.8 7.68 5.36 c0.08 0.16 0 0.36 -0.12 0.44 l-3.56 2.48 c-0.16 0.08 -0.24 0.08 -0.4 -0.12 c-1.36 -1.96 -2.56 -2.88 -4.16 -2.88 c-0.84 0 -2.8 0.32 -2.8 1.8 c0 1.8 3.32 2.72 4.92 3.48 z M80.22800000000001 34.84 c1 2 3.76 3.16 6 3.16 c2.92 0 5.28 -2 5.6 -5.04 c0.4 -3.72 -2.52 -5.32 -5.4 -6.76 l-1.28 -0.56 c-2.96 -1.32 -5.12 -2.32 -5.12 -5.08 c0 -3.04 2.8 -4.44 5.56 -4.44 c2.52 0 3.84 1.48 4.52 2.4 c0.24 0.32 0.64 0.04 0.4 -0.28 c-0.68 -0.84 -2.12 -2.6 -4.92 -2.6 c-3.16 0 -6.04 1.56 -6.04 4.92 c0 3 2.4 4.16 5.44 5.56 l1.24 0.6 c3.96 1.88 5.4 3.64 5.08 6.2 c-0.6 4.08 -3.72 4.6 -5.08 4.6 c-3 0 -5 -1.8 -5.6 -2.92 c-0.2 -0.2 -0.48 0 -0.4 0.24 z M123.184 43.76 c0 0.24 -0.2 0.36 -0.36 0.36 l-19.12 0 c-0.2 0 -0.4 -0.12 -0.4 -0.36 l0 -3.44 c0 -0.16 0.2 -0.36 0.4 -0.36 l19.12 0 c0.2 0 0.36 0.16 0.36 0.36 l0 3.44 z M120.984 42.32 c0.32 0 0.36 -0.48 0 -0.52 l-15.36 0 c-0.28 0 -0.32 0.44 0 0.52 l15.36 0 z M144.98 30.759999999999998 l0 -1.24 c0 -0.2 0.16 -0.36 0.36 -0.36 l4.56 0 c0.2 0 0.36 0.16 0.36 0.36 l0 2.52 c0 5.88 -3.16 8.36 -9.12 8.36 c-5.56 0 -9.2 -2.2 -9.2 -8.36 l0 -10.52 c0 -5.92 3.24 -8.28 9.2 -8.28 c5.64 0 9.12 2.16 9.12 8.28 l0 0.84 c0 0.2 -0.16 0.36 -0.36 0.36 l-4.6 0 c-0.2 0 -0.36 -0.16 -0.36 -0.36 l0 -0.64 c0 -2.2 -1.64 -3.12 -3.6 -3.12 l-0.48 0 c-1.32 0 -2.2 0.36 -2.8 1.16 c-0.56 0.76 -0.76 1.76 -0.76 3.08 l0 7.92 c0 3.48 1.96 4.24 3.56 4.24 l0.48 0 c2.52 0 3.56 -1.68 3.64 -4.24 z M141.06 15.719999999999999 c-4.28 0 -6.76 1.52 -6.76 6.4 l0 9.64 c0 4.44 2.28 6.08 6.76 6.08 c4.2 0 6.72 -1.52 6.72 -6.12 c0 -0.32 -0.48 -0.32 -0.48 0 c0 4.04 -2.2 5.68 -6.24 5.68 c-3.92 0 -6.32 -1.36 -6.32 -5.64 l0 -9.64 c0 -4.16 1.96 -5.96 6.32 -5.96 c5.68 0 5.88 3.6 5.88 4 c0 0.36 0.56 0.4 0.56 0 c0 -3.32 -3.36 -4.44 -6.44 -4.44 z M175.016 29.560000000000002 c-0.56 1.16 -1.36 2.04 -2.48 2.56 l3.36 7.4 c0.12 0.24 -0.04 0.48 -0.28 0.48 l-4.92 0 c-0.16 0 -0.24 -0.08 -0.28 -0.2 l-3.12 -6.8 l-2.04 0 l0 6.64 c0 0.2 -0.16 0.36 -0.36 0.36 l-4.6 0 c-0.16 0 -0.28 -0.16 -0.28 -0.36 l0 -25.68 c0 -0.2 0.12 -0.36 0.28 -0.36 l8.32 0 c4.44 0 7.12 2.52 7.12 7.2 l0 5.04 c0 1.4 -0.24 2.72 -0.72 3.72 z M170.496 24.6 l0 -2.6 c0 -2.8 -1.04 -3.08 -4.08 -3.08 l-1.16 0 l0 8.84 l1.16 0 c2.52 0 4 -0.04 4.08 -3.16 z M162.936 37.56 l0 -6.84 l5.76 0 l3.36 6.92 c0.08 0.2 0.56 0.12 0.44 -0.24 l-3.36 -6.8 c3.12 -0.44 4.2 -2.08 4.2 -5.04 l0 -5 c0 -4.4 -4 -4.76 -5.24 -4.76 l-5.4 0 c-0.08 0 -0.24 0.12 -0.24 0.24 l0 21.52 c0 0.28 0.48 0.28 0.48 0 z M172.856 20.56 l0 5 c0 4.08 -2.6 4.64 -5.12 4.64 l-4.8 0 l0 -13.88 l5.16 0 c4.32 0 4.76 2.92 4.76 4.24 z M190.81199999999998 13.84 c0.04 -0.12 0.12 -0.24 0.28 -0.24 l4.96 0 c0.16 0 0.24 0.12 0.28 0.24 l6.92 25.72 c0.04 0.24 -0.12 0.44 -0.36 0.44 l-4.56 0 c-0.12 0 -0.24 -0.08 -0.28 -0.24 l-1.56 -5.6 l-5.84 0 l-1.52 5.6 c-0.04 0.16 -0.12 0.24 -0.28 0.24 l-4.6 0 c-0.24 0 -0.4 -0.2 -0.36 -0.44 z M191.932 29.2 l3.32 0 l-1.72 -6.04 z M198.09199999999998 31.560000000000002 l1.84 6 c0.08 0.24 0.52 0.2 0.4 -0.12 l-6.4 -21.28 c-0.12 -0.52 -0.8 -0.56 -0.92 0 l-6.2 21.28 c-0.12 0.28 0.32 0.4 0.44 0.16 l1.76 -6.04 l9.08 0 z M189.132 31.04 l4.36 -14.72 l4.44 14.72 l-8.8 0 z M214.248 16 l0 21.56 c0 0.28 0.48 0.36 0.48 0 l0 -10.76 l7.36 0 c0.4 0 0.4 -0.56 0 -0.56 l-7.36 0 l0 -9.92 l8.96 0 c0.28 0 0.36 -0.52 0 -0.52 l-9.2 0 c-0.12 0 -0.24 0.04 -0.24 0.2 z M216.768 40 l-4.6 0 c-0.2 0 -0.32 -0.16 -0.32 -0.36 l0 -25.68 c0 -0.2 0.12 -0.36 0.32 -0.36 l13.6 0 c0.2 0 0.36 0.16 0.36 0.36 l0 4.28 c0 0.2 -0.16 0.36 -0.36 0.36 l-8.64 0 l0 5.44 l6.72 0 c0.2 0 0.32 0.16 0.32 0.36 l0 4.36 c0 0.2 -0.12 0.36 -0.32 0.36 l-6.72 0 l0 10.52 c0 0.2 -0.16 0.36 -0.36 0.36 z M238.844 18.6 l-5.68 0 c-0.2 0 -0.36 -0.16 -0.36 -0.36 l0 -4.28 c0 -0.2 0.16 -0.36 0.36 -0.36 l16.68 0 c0.2 0 0.36 0.16 0.36 0.36 l0 4.28 c0 0.2 -0.16 0.36 -0.36 0.36 l-5.68 0 l0 21.04 c0 0.2 -0.16 0.36 -0.36 0.36 l-4.6 0 c-0.2 0 -0.36 -0.16 -0.36 -0.36 l0 -21.04 z M247.404 15.8 l-12.08 0 c-0.28 0 -0.28 0.52 0 0.52 l5.92 0 l0 21.2 c0 0.28 0.52 0.28 0.52 0 l0 -21.2 l5.64 0 c0.4 0 0.36 -0.52 0 -0.52 z"></path></g>
			</g>
		</svg>
	